<?xml version="1.0" encoding="UTF-8" standalone="no"?>
<!-- Created with Inkscape (http://www.inkscape.org/) -->

<svg
   width="190"
   height="193.05"
   version="1.1"
   viewBox="0 0 190 193.05"
   id="svg18"
   sodipodi:docname="icon.svg"
   inkscape:export-filename="/home/thirumalairaj/Documents/repositories/oss.codes/privacify/firefox/icons/icon128.png"
   inkscape:export-xdpi="64.669998"
   inkscape:export-ydpi="64.669998"
   inkscape:version="1.1.2 (0a00cf5339, 2022-02-04)"
   xmlns:inkscape="http://www.inkscape.org/namespaces/inkscape"
   xmlns:sodipodi="http://sodipodi.sourceforge.net/DTD/sodipodi-0.dtd"
   xmlns="http://www.w3.org/2000/svg"
   xmlns:svg="http://www.w3.org/2000/svg">
  <defs
     id="defs22" />
  <sodipodi:namedview
     id="namedview20"
     pagecolor="#ffffff"
     bordercolor="#666666"
     borderopacity="1.0"
     inkscape:pageshadow="2"
     inkscape:pageopacity="0.0"
     inkscape:pagecheckerboard="0"
     showgrid="false"
     inkscape:zoom="3.7140637"
     inkscape:cx="95.044144"
     inkscape:cy="96.390378"
     inkscape:window-width="1600"
     inkscape:window-height="931"
     inkscape:window-x="0"
     inkscape:window-y="32"
     inkscape:window-maximized="1"
     inkscape:current-layer="svg18" />
  <g
     transform="translate(10.083 9.2798)"
     fill="none"
     id="g16">
    <rect
       x="-43.084"
       y="-40.755"
       width="256"
       height="256"
       id="rect2" />
    <g
       transform="translate(1 1)"
       stroke="#000"
       stroke-linecap="round"
       stroke-linejoin="round"
       id="g14">
      <polyline
         transform="matrix(.7952 0 0 .7952 2.1504 -37.088)"
         points="168 168 216 168 216 40 88 40 88 88"
         fill="none"
         stroke="#b3b3b3"
         stroke-width="12.575"
         id="polyline4" />
      <polyline
         transform="matrix(.7952 0 0 .7952 -38.019 1.0819)"
         points="168 168 216 168 216 40 88 40 88 88"
         fill="none"
         stroke="#b3b3b3"
         stroke-width="12.575"
         id="polyline6" />
      <g
         transform="matrix(.57356 0 0 .57356 -178.1 73.343)"
         fill="#f00"
         stroke-width="17.435"
         id="g12">
        <path
           d="m299.92 65.121v-58.7a8 8 0 0 1 8-8h160a8 8 0 0 1 8 8v58.7c0 84-71.3 111.8-85.5 116.5a7.2 7.2 0 0 1-5 0c-14.2-4.7-85.5-32.5-85.5-116.5z"
           stroke="#f00"
           id="path8" />
        <polyline
           transform="translate(259.92 -49.579)"
           points="172 104 113.3 160 84 132"
           stroke="#fff"
           id="polyline10" />
      </g>
    </g>
  </g>
</svg>
